<?xml version="1.0" standalone="no"?>
<!DOCTYPE svg PUBLIC "-//W3C//DTD SVG 20010904//EN"
 "http://www.w3.org/TR/2001/REC-SVG-20010904/DTD/svg10.dtd">
<svg version="1.0" xmlns="http://www.w3.org/2000/svg"
 width="310.000000pt" height="310.000000pt" viewBox="0 0 310.000000 310.000000"
 preserveAspectRatio="xMidYMid meet">

<g transform="translate(0.000000,310.000000) scale(0.100000,-0.100000)"
fill="#000000" stroke="none">
<path d="M1543 2731 c-2 -26 1 -29 27 -27 17 0 30 6 30 13 0 6 3 18 6 27 5 13
-1 16 -27 16 -30 0 -34 -3 -36 -29z"/>
<path d="M1683 2719 c-3 -19 -14 -34 -25 -36 -16 -5 -24 -36 -20 -74 1 -3 -56
-9 -126 -12 -343 -17 -626 -175 -811 -453 -61 -90 -151 -284 -151 -326 0 -10
-3 -9 -10 2 -8 12 -10 12 -10 1 0 -9 -8 -12 -27 -7 -16 3 -38 8 -51 10 -30 4
-41 16 -16 17 15 1 13 3 -6 9 -41 13 -50 11 -50 -11 0 -11 3 -18 8 -16 4 3 13
-2 21 -11 13 -13 12 -14 -13 -8 -16 4 -25 3 -22 -2 3 -6 22 -13 42 -16 29 -6
35 -11 32 -29 -3 -20 -8 -22 -50 -20 l-48 3 0 -39 c0 -41 11 -51 56 -51 17 0
24 -6 24 -20 0 -17 -7 -20 -43 -20 l-43 0 4 -39 c4 -38 6 -40 40 -43 26 -2 38
-8 40 -20 3 -14 -4 -18 -32 -18 -42 0 -49 -9 -41 -54 7 -33 8 -34 46 -29 32 5
39 3 39 -11 0 -14 -12 -22 -66 -41 -9 -2 -9 -13 0 -40 10 -34 13 -36 51 -33
30 2 40 -1 43 -13 2 -10 -6 -19 -20 -23 -44 -11 -49 -20 -37 -54 12 -35 15
-37 55 -22 21 8 29 8 36 -2 12 -20 10 -23 -27 -41 l-36 -17 16 -31 c14 -27 20
-30 43 -24 64 17 83 -2 33 -31 -36 -21 -37 -30 -12 -63 17 -23 18 -23 51 -6
27 14 34 14 41 3 13 -20 11 -25 -21 -45 l-29 -18 25 -33 26 -32 29 21 c31 22
59 20 59 -5 0 -9 -9 -20 -20 -26 -27 -15 -25 -31 9 -64 l28 -27 30 25 c25 21
33 23 47 13 16 -12 16 -14 -3 -39 -12 -14 -21 -30 -21 -35 0 -13 68 -55 79
-49 5 4 13 -3 16 -14 5 -17 9 -19 21 -9 12 10 13 9 8 -4 -3 -10 2 -20 15 -27
12 -6 21 -17 21 -25 0 -8 6 -18 14 -22 8 -4 54 -47 103 -94 48 -47 102 -94
118 -104 17 -11 44 -31 61 -46 48 -40 309 -164 399 -189 44 -12 91 -26 105
-31 86 -29 275 -36 395 -14 139 26 195 45 195 67 0 5 11 8 25 8 14 0 28 7 31
15 4 8 11 15 16 15 22 0 78 33 83 48 3 10 26 31 50 47 25 17 48 40 51 52 4 13
10 21 14 18 5 -3 25 16 46 42 21 27 43 53 49 58 6 6 26 41 45 78 19 38 43 75
52 84 10 9 18 22 18 29 0 7 8 28 18 46 10 18 24 53 31 78 7 25 16 50 21 55 9
13 35 117 55 228 17 90 19 272 5 344 -28 139 -43 202 -56 230 -7 17 -14 38
-14 46 0 9 -5 19 -10 22 -6 4 -8 10 -5 15 3 5 1 11 -3 14 -5 3 -39 65 -76 138
-81 161 -96 185 -146 238 l-39 41 -32 -16 c-26 -14 -33 -15 -40 -3 -11 16 -11
28 -1 28 4 0 18 9 31 19 l24 18 -23 34 c-13 19 -25 35 -26 37 -1 2 -14 -4 -28
-13 -22 -15 -29 -15 -42 -4 -14 12 -13 15 12 35 27 22 27 23 10 49 -23 35 -40
40 -68 21 -28 -20 -34 -20 -42 0 -4 10 3 23 16 34 l23 19 -34 35 -35 36 -21
-20 c-25 -23 -38 -25 -54 -6 -8 10 -6 19 9 39 l20 25 -31 27 -32 26 -26 -25
c-24 -23 -29 -25 -47 -12 -19 14 -19 15 -1 46 11 17 17 32 15 34 -1 1 -19 12
-38 24 l-34 21 -26 -30 c-23 -28 -27 -29 -45 -16 -16 13 -18 18 -7 41 11 24 9
27 -27 46 l-39 19 -12 -29 c-12 -30 -33 -37 -58 -22 -10 7 -10 15 -2 37 12 33
12 33 -26 41 -26 5 -30 2 -41 -25 -10 -27 -14 -30 -35 -22 -18 7 -22 15 -20
36 6 52 -55 64 -65 14z m-80 -152 c7 -18 -15 -52 -33 -52 -8 0 -15 -6 -14 -12
1 -7 2 -178 3 -379 l1 -367 33 27 c46 37 342 255 409 302 32 21 58 42 58 47 0
11 -118 95 -170 122 -63 32 -153 60 -235 74 l-70 12 3 40 4 40 42 -6 c168 -27
314 -95 440 -206 l47 -41 55 36 c70 47 98 58 112 44 13 -13 -12 -34 -343 -290
-132 -103 -271 -213 -310 -247 -38 -33 -107 -90 -152 -128 -45 -37 -82 -71
-82 -75 -1 -15 64 -8 90 10 82 55 420 345 550 471 41 40 77 68 117 89 34 18
46 21 58 11 8 -6 14 -15 14 -20 0 -4 -33 -34 -72 -65 -103 -82 -261 -218 -420
-362 l-138 -125 30 -19 c43 -25 56 -59 40 -98 -26 -62 -48 -70 -194 -70 l-131
0 25 -22 c14 -13 42 -35 62 -50 35 -27 37 -27 43 -8 5 15 15 20 41 20 l34 0 2
-172 c5 -415 4 -426 -14 -445 -17 -16 -19 -16 -43 7 -17 16 -25 34 -25 57 0
26 -5 34 -22 37 -115 24 -132 29 -111 37 11 4 23 15 27 24 3 9 10 13 16 10 5
-3 10 -1 10 4 0 6 21 11 48 12 44 1 41 2 -38 19 -176 38 -291 98 -405 214
-132 133 -184 265 -170 428 8 100 63 283 126 421 14 31 84 43 99 17 7 -12 9
-9 10 11 0 20 18 44 69 92 65 61 129 103 261 173 30 16 58 33 61 38 12 16 19
-107 15 -273 l-3 -163 -31 -13 c-60 -26 -71 -73 -33 -143 10 -18 -1 -29 -110
-117 l-120 -97 3 -41 c3 -38 6 -42 37 -48 44 -9 60 -2 66 27 3 13 8 36 11 52
3 17 42 63 106 125 l100 97 -3 418 c-3 327 -1 422 9 442 l13 25 -20 -25 c-16
-20 -21 -40 -21 -98 0 -50 -4 -74 -12 -76 -7 -2 -53 -13 -103 -24 -323 -77
-562 -347 -591 -667 l-7 -75 -23 26 c-25 26 -28 37 -25 94 6 144 90 327 210
462 101 113 282 216 437 247 82 17 89 20 92 43 3 25 3 26 -45 17 -265 -50
-464 -181 -619 -410 -20 -30 -33 -44 -30 -31 5 14 3 22 -4 22 -6 0 -8 5 -5 10
3 6 -1 10 -10 10 -8 0 -18 7 -21 15 -4 8 -11 12 -16 9 -13 -8 7 29 45 85 126
184 350 332 570 376 139 28 282 34 290 12z m-988 -893 c-62 -17 -79 -17 -40 1
17 8 44 14 60 14 24 -1 21 -3 -20 -15z m1875 -4 c27 -27 26 -65 -2 -84 -25
-18 -90 -21 -117 -7 -16 9 -17 4 -13 -47 9 -131 -63 -322 -174 -460 -114 -144
-291 -256 -473 -301 -124 -31 -127 -30 -123 24 3 28 9 45 17 45 7 0 15 6 18
14 3 7 23 17 44 21 70 13 193 66 268 116 98 66 203 180 251 273 21 41 40 73
42 71 2 -2 -16 -41 -40 -87 -48 -93 -146 -203 -233 -264 -57 -39 -71 -53 -32
-33 46 25 137 101 191 160 103 114 182 310 187 464 1 22 3 32 6 22 7 -25 33
-3 33 28 0 56 107 88 150 45z m-476 -56 c21 -20 21 -70 0 -78 -30 -11 -53 -6
-64 15 -15 27 -5 66 18 72 29 8 30 8 46 -9z m253 -146 c-3 -7 -5 -2 -5 12 0
14 2 19 5 13 2 -7 2 -19 0 -25z m250 -10 c-3 -8 -6 -5 -6 6 -1 11 2 17 5 13 3
-3 4 -12 1 -19z m-267 -68 c-6 -23 -13 -40 -15 -38 -2 2 1 23 7 46 6 24 13 41
15 38 2 -2 -1 -23 -7 -46z m257 -2 c-3 -7 -5 -2 -5 12 0 14 2 19 5 13 2 -7 2
-19 0 -25z m-399 -51 c18 -29 32 -56 32 -60 0 -3 -21 -13 -47 -20 -41 -12 -48
-18 -56 -48 -5 -19 -13 -40 -19 -46 -7 -9 -7 -13 2 -13 14 0 -71 -78 -106 -97
-22 -13 -22 -12 -13 22 11 39 5 71 -18 96 -13 15 -9 19 31 39 l46 22 0 54 0
55 53 24 c28 13 54 24 57 24 3 1 20 -23 38 -52z m389 11 c-3 -8 -6 -5 -6 6 -1
11 2 17 5 13 3 -3 4 -12 1 -19z m-10 -40 c-3 -8 -6 -5 -6 6 -1 11 2 17 5 13 3
-3 4 -12 1 -19z m-18 -57 c-6 -18 -13 -30 -15 -28 -2 2 1 18 7 36 6 18 13 30
15 28 2 -2 -1 -18 -7 -36z m-629 -41 c40 -40 11 -110 -45 -110 -28 0 -75 40
-75 63 0 8 9 26 21 41 25 32 70 35 99 6z m566 -94 c-129 -231 -338 -394 -601
-471 -48 -14 -97 -25 -109 -25 -11 1 21 12 72 25 113 29 275 105 359 169 92
70 202 192 258 288 58 99 75 110 21 14z m-743 -503 c-7 -2 -21 -2 -30 0 -10 3
-4 5 12 5 17 0 24 -2 18 -5z"/>
<path d="M1194 1986 c-10 -8 -17 -17 -14 -19 3 -3 16 3 29 14 27 22 15 26 -15
5z"/>
<path d="M1638 853 c6 -2 18 -2 25 0 6 3 1 5 -13 5 -14 0 -19 -2 -12 -5z"/>
<path d="M1140 2689 c-13 -9 -12 -10 3 -5 22 7 36 -22 16 -36 -12 -8 -11 -9 1
-5 17 4 21 49 5 54 -5 1 -17 -2 -25 -8z"/>
<path d="M900 2572 c0 -5 10 -17 21 -28 22 -19 22 -19 10 3 -12 24 -31 39 -31
25z"/>
<path d="M875 2551 c-3 -5 -2 -12 3 -15 5 -3 9 1 9 9 0 17 -3 19 -12 6z"/>
<path d="M782 2493 l-21 -18 22 -27 c20 -24 24 -25 41 -13 18 14 18 15 -1 45
-19 30 -20 31 -41 13z"/>
</g>
</svg>
